# xmcd
#
# Track frame offsets:
# 150
# 13128
# 31976
# 45451
# 59153
# 73841
# 79845
# 96836
# 104200
# 116706
# 133079
# 146306
# 155479
# 170248
#
# Disc length: 2405 seconds
#
#
# Revision: 0
# Processed by: cddbd v1.5.2PL0 Copyright (c) Steve Scherf et al.
# Submitted via: FreeRIP 2.941 
#
DISCID=d209630e
DTITLE=Amelia - A Long, Lovely List of Repairs
DYEAR=2008
DGENRE=Swing
TTITLE0=Enemigo
TTITLE1=Farewell
TTITLE2=Tragedy
TTITLE3=After You
TTITLE4=Try
TTITLE5=The End
TTITLE6=Dolores
TTITLE7=Thick as Thieves
TTITLE8=Sugar Falls
TTITLE9=The Great Escape
TTITLE10=Eyesore
TTITLE11=Cover the Leak
TTITLE12=Needlework
TTITLE13=Here We Are
EXTD=
EXTT0=
EXTT1=
EXTT2=
EXTT3=
EXTT4=
EXTT5=
EXTT6=
EXTT7=
EXTT8=
EXTT9=
EXTT10=
EXTT11=
EXTT12=
EXTT13=
PLAYORDER=
